<svg width="241" height="83" viewBox="0 0 241 83" fill="none" xmlns="http://www.w3.org/2000/svg">
<path d="M130.676 69.0923C127.945 66.7425 125.31 64.234 122.77 61.5667C120.293 58.8359 117.975 56.0415 115.816 53.1837C113.72 50.3259 111.783 47.4363 110.005 44.515C108.29 41.5302 106.829 38.6088 105.623 35.751C103.463 38.1008 101.304 40.4823 99.145 42.8956C97.0492 45.2453 95.1758 47.6268 93.5246 50.0401C91.8734 52.3899 90.5397 54.7714 89.5236 57.1847C88.444 59.5344 87.9042 61.8842 87.9042 64.234C87.9042 67.0283 88.3805 69.4415 89.3331 71.4738C90.2222 73.4425 91.4288 75.0619 92.953 76.3321C94.4772 77.6022 96.2236 78.5231 98.1923 79.0946C100.161 79.6662 102.193 79.952 104.289 79.952C108.481 79.952 112.926 78.9676 117.626 76.9989C122.325 75.0302 126.675 72.3946 130.676 69.0923ZM118.864 12.6027C118.864 10.3799 118.356 8.79224 117.34 7.83963C116.387 6.82352 115.339 6.31546 114.196 6.31546C113.244 6.31546 112.227 6.633 111.148 7.26807C110.132 7.90314 109.179 8.82399 108.29 10.0306C107.464 11.1738 106.766 12.5709 106.194 14.2221C105.623 15.8733 105.337 17.6832 105.337 19.652C105.337 23.2719 106.004 27.114 107.337 31.1785C108.925 29.5273 110.417 27.9079 111.815 26.3202C113.212 24.7325 114.418 23.1766 115.435 21.6524C116.514 20.0648 117.34 18.5406 117.911 17.0799C118.546 15.5557 118.864 14.0633 118.864 12.6027ZM155.539 82.143C155.539 82.3335 155.412 82.524 155.158 82.7145C154.904 82.9051 154.523 83.0003 154.015 83.0003C150.205 81.7937 146.458 80.1107 142.774 77.9515C139.091 75.7288 135.503 73.1567 132.01 70.2354C129.597 72.0771 127.088 73.76 124.484 75.2842C121.881 76.8084 119.213 78.1103 116.482 79.1899C113.815 80.2695 111.116 81.0951 108.385 81.6667C105.718 82.2382 103.146 82.524 100.669 82.524C98.2559 82.524 95.9696 82.1747 93.8104 81.4761C91.6511 80.8411 89.7777 79.8567 88.19 78.5231C86.6023 77.1259 85.3639 75.4112 84.4748 73.379C83.5222 71.3468 83.0459 68.9652 83.0459 66.2344C83.0459 63.3131 83.7127 60.4553 85.0464 57.661C86.38 54.8031 88.0947 52.0088 90.1905 49.278C92.2862 46.5472 94.6042 43.8799 97.1445 41.2761C99.7483 38.6723 102.289 36.1321 104.765 33.6553C102.924 28.7017 102.003 24.2245 102.003 20.2235C102.003 17.8738 102.416 15.7145 103.241 13.7458C104.13 11.7771 105.242 10.0941 106.575 8.69698C107.909 7.29982 109.37 6.2202 110.957 5.45812C112.608 4.63252 114.164 4.21973 115.625 4.21973C117.34 4.21973 118.896 4.79129 120.293 5.93442C121.69 7.01404 122.389 8.82399 122.389 11.3643C122.389 12.952 121.976 14.6031 121.15 16.3178C120.388 18.0325 119.34 19.8107 118.007 21.6524C116.736 23.4306 115.212 25.3041 113.434 27.2728C111.719 29.178 109.909 31.1467 108.004 33.179C110.1 38.9581 113.212 44.8325 117.34 50.8022C121.531 56.7084 126.612 62.2335 132.581 67.3776C135.82 64.4562 138.424 61.2491 140.393 57.7562C142.362 54.2633 143.346 50.6117 143.346 46.8013C143.346 45.5311 143.155 44.261 142.774 42.9908C142.457 41.6572 141.79 40.26 140.774 38.7994C140.774 38.6723 140.964 38.5453 141.345 38.4183C141.726 38.2278 142.076 38.1325 142.393 38.1325C143.282 38.1325 143.981 38.4501 144.489 39.0851C145.061 39.6567 145.473 40.3553 145.727 41.1809C146.045 42.0065 146.235 42.8638 146.299 43.7529C146.426 44.5785 146.49 45.2453 146.49 45.7534C146.49 49.9449 145.315 54.0093 142.965 57.9468C140.679 61.8207 137.694 65.3771 134.01 68.616C140.171 73.887 147.125 78.1738 154.872 81.4761C155.317 81.7302 155.539 81.9524 155.539 82.143Z" fill="#FFA55C"/>
<path d="M19.24 48.1269C19.24 46.1429 19.112 44.4949 18.856 43.1829C18.632 41.8709 18.312 41.2149 17.896 41.2149C17.64 41.2149 17.4 41.4069 17.176 41.7909C16.952 42.1429 16.76 42.6549 16.6 43.3269C16.472 43.9669 16.36 44.7349 16.264 45.6309C16.2 46.4949 16.168 47.4389 16.168 48.4629C16.168 50.2869 16.296 52.2549 16.552 54.3669C16.808 56.4469 17.256 58.4629 17.896 60.4149C18.344 58.3669 18.68 56.2709 18.904 54.1269C19.128 51.9509 19.24 49.9509 19.24 48.1269ZM39.352 26.3349C39.352 26.4949 39.288 26.6229 39.16 26.7189C39.032 26.8149 38.872 26.9269 38.68 27.0549C37.72 27.6309 36.936 28.4309 36.328 29.4549C35.72 30.4789 35.224 31.5989 34.84 32.8149C34.488 34.0309 34.248 35.2789 34.12 36.5589C33.992 37.8069 33.928 38.9589 33.928 40.0149C33.928 40.7509 33.96 41.6629 34.024 42.7509C34.12 43.8069 34.216 44.9749 34.312 46.2549C34.44 47.5349 34.536 48.8949 34.6 50.3349C34.696 51.7429 34.744 53.1829 34.744 54.6549C34.744 56.7349 34.616 58.7509 34.36 60.7029C34.136 62.6549 33.672 64.3989 32.968 65.9349C32.296 67.4709 31.352 68.7029 30.136 69.6309C28.92 70.5589 27.336 71.0229 25.384 71.0229C24.488 71.0229 23.64 70.8469 22.84 70.4949C22.072 70.1749 21.352 69.7109 20.68 69.1029C20.04 68.4949 19.448 67.7909 18.904 66.9909C18.392 66.1909 17.928 65.3109 17.512 64.3509C17.096 65.4709 16.6 66.5109 16.024 67.4709C15.48 68.4309 14.872 69.2629 14.2 69.9669C13.528 70.6709 12.792 71.2149 11.992 71.5989C11.192 71.9829 10.344 72.1749 9.44799 72.1749C8.07199 72.1749 6.90399 71.8229 5.94399 71.1189C5.01599 70.4149 4.24799 69.4869 3.63999 68.3349C3.03199 67.2149 2.55199 65.9349 2.19999 64.4949C1.87999 63.0229 1.63999 61.5349 1.47999 60.0309C1.31999 58.4949 1.20799 57.0069 1.14399 55.5669C1.11199 54.0949 1.07999 52.7989 1.04799 51.6789C0.983991 49.6629 1.01599 47.7589 1.14399 45.9669C1.30399 44.1429 1.47999 42.5109 1.67199 41.0709C1.86399 39.5989 2.05599 38.3349 2.24799 37.2789C2.43999 36.2229 2.56799 35.4389 2.63199 34.9269C2.66399 34.7349 2.85599 34.6069 3.20799 34.5429C3.59199 34.4789 3.92799 34.4468 4.21599 34.4468C4.43999 34.4468 4.63199 34.4789 4.79199 34.5429C4.95199 34.5749 5.03199 34.6709 5.03199 34.8309C5.03199 35.0229 4.95199 35.3589 4.79199 35.8389C4.63199 36.2869 4.39199 37.1509 4.07199 38.4309C3.94399 39.0069 3.79999 39.8389 3.63999 40.9269C3.51199 41.9829 3.38399 43.1829 3.25599 44.5269C3.15999 45.8709 3.07999 47.3109 3.01599 48.8469C2.95199 50.3509 2.91999 51.8229 2.91999 53.2629C2.91999 54.3829 2.96799 55.6149 3.06399 56.9589C3.15999 58.2709 3.31999 59.5829 3.54399 60.8949C3.76799 62.1749 4.07199 63.4229 4.45599 64.6389C4.83999 65.8549 5.30399 66.9269 5.84799 67.8549C6.42399 68.7829 7.09599 69.5189 7.86399 70.0629C8.63199 70.6389 9.52799 70.9269 10.552 70.9269C11.32 70.9269 12.024 70.7349 12.664 70.3509C13.304 69.9669 13.896 69.4229 14.44 68.7189C14.984 68.0469 15.464 67.2469 15.88 66.3189C16.328 65.3909 16.728 64.3829 17.08 63.2949C16.344 61.2789 15.8 59.1349 15.448 56.8629C15.096 54.5909 14.92 52.4949 14.92 50.5749C14.92 49.1669 14.968 47.7749 15.064 46.3989C15.192 45.0229 15.368 43.7909 15.592 42.7029C15.816 41.6149 16.104 40.7349 16.456 40.0629C16.808 39.3909 17.224 39.0549 17.704 39.0549C18.088 39.0549 18.424 39.2949 18.712 39.7749C19.032 40.2549 19.288 40.9109 19.48 41.7429C19.704 42.5749 19.864 43.5669 19.96 44.7189C20.088 45.8389 20.152 47.0549 20.152 48.3669C20.152 50.4789 20.008 52.7029 19.72 55.0389C19.432 57.3429 18.984 59.5989 18.376 61.8069C18.792 62.9269 19.272 63.9669 19.816 64.9269C20.36 65.8549 20.968 66.6709 21.64 67.3749C22.344 68.0788 23.112 68.6229 23.944 69.0069C24.808 69.4229 25.752 69.6309 26.776 69.6309C28.184 69.6309 29.336 69.2789 30.232 68.5749C31.128 67.9029 31.832 66.9749 32.344 65.7909C32.856 64.5749 33.208 63.1829 33.4 61.6149C33.592 60.0149 33.688 58.3029 33.688 56.4789C33.688 54.8469 33.624 53.1669 33.496 51.4389C33.4 49.7108 33.288 47.9989 33.16 46.3029C33.032 44.5749 32.904 42.9109 32.776 41.3109C32.68 39.6789 32.632 38.1749 32.632 36.7989C32.632 35.8069 32.776 34.6549 33.064 33.3428C33.384 32.0309 33.8 30.7989 34.312 29.6469C34.856 28.4629 35.464 27.4709 36.136 26.6708C36.84 25.8389 37.576 25.4229 38.344 25.4229C38.568 25.4229 38.792 25.5349 39.016 25.7589C39.24 25.9509 39.352 26.1429 39.352 26.3349Z" fill="#FFF9F4"/>
<path d="M54.3396 58.2069C54.3396 57.7269 54.2596 57.3429 54.0996 57.0549C53.9396 56.7349 53.6836 56.5749 53.3316 56.5749C52.7876 56.5749 52.3716 56.8469 52.0836 57.3909C51.7956 57.9029 51.6676 58.5589 51.6996 59.3589C51.7956 61.0549 52.0996 62.4789 52.6116 63.6309C53.1556 62.8949 53.5716 62.0629 53.8596 61.1349C54.1796 60.2069 54.3396 59.2309 54.3396 58.2069ZM67.2996 58.1589C67.0756 58.6389 66.8356 59.1348 66.5796 59.6469C66.3236 60.1269 66.0356 60.6069 65.7156 61.0869C64.0836 63.5189 62.4356 65.3269 60.7716 66.5109C59.1076 67.6949 57.5556 68.2869 56.1156 68.2869C54.2916 68.2869 52.8996 67.4229 51.9396 65.6949C50.8196 66.8148 49.5556 67.6629 48.1476 68.2389C46.7716 68.8149 45.4116 69.1029 44.0676 69.1029C43.2676 69.1029 42.4996 68.9909 41.7636 68.7669C41.0596 68.5429 40.4516 68.2069 39.9396 67.7589C39.3956 67.2789 38.9636 66.6869 38.6436 65.9829C38.3236 65.2469 38.1636 64.3989 38.1636 63.4389C38.1636 62.2869 38.4356 61.1189 38.9796 59.9349C39.4916 58.7189 40.2116 57.6309 41.1396 56.6709C42.0996 55.6789 43.2196 54.8629 44.4996 54.2229C45.7796 53.5829 47.1716 53.2629 48.6756 53.2629C49.8916 53.2629 50.8356 53.4389 51.5076 53.7909C52.1796 54.1109 52.5156 54.4149 52.5156 54.7029C52.5156 54.8309 52.4516 54.9269 52.3236 54.9909C52.1956 55.0549 52.0836 55.0869 51.9876 55.0869C51.9556 55.0549 51.9236 55.0389 51.8916 55.0389H51.8436C51.4596 54.6869 51.0276 54.4149 50.5476 54.2229C50.0676 53.9989 49.3636 53.8869 48.4356 53.8869C47.1876 53.8869 46.0516 54.1589 45.0276 54.7029C44.0356 55.2149 43.1876 55.9029 42.4836 56.7669C41.7796 57.5989 41.2356 58.5269 40.8516 59.5509C40.4676 60.5749 40.2756 61.5829 40.2756 62.5749C40.2756 64.4949 40.7236 65.8869 41.6196 66.7509C42.5156 67.6149 43.6356 68.0469 44.9796 68.0469C46.0676 68.0469 47.2036 67.7749 48.3876 67.2309C49.5716 66.6869 50.6276 65.9189 51.5556 64.9269C51.0436 63.7749 50.7876 62.2709 50.7876 60.4149C50.7876 59.1989 51.0116 58.1429 51.4596 57.2469C51.9076 56.3509 52.5476 55.9029 53.3796 55.9029C54.5316 55.9029 55.1076 56.5749 55.1076 57.9189C55.1076 59.2629 54.9156 60.4789 54.5316 61.5669C54.1476 62.6229 53.6356 63.5829 52.9956 64.4469C53.8916 66.1109 55.1396 66.9429 56.7396 66.9429C57.9556 66.9429 59.2516 66.4309 60.6276 65.4069C62.0356 64.3829 63.4116 62.8949 64.7556 60.9429C65.0756 60.4629 65.3636 59.9669 65.6196 59.4549C65.8756 58.9429 66.1316 58.4309 66.3876 57.9189L67.2996 58.1589Z" fill="#FFF9F4"/>
<path d="M73.9667 36.7029C73.9667 34.8789 73.6627 33.4229 73.0547 32.3349C72.4787 31.2149 71.5027 30.6549 70.1267 30.6549C69.6467 30.6549 69.1987 30.8149 68.7827 31.1349C68.3987 31.4229 68.0627 31.8229 67.7747 32.3349C67.4867 32.8469 67.2627 33.4389 67.1027 34.1109C66.9427 34.7829 66.8627 35.5029 66.8627 36.2709C66.8627 38.3829 66.8787 40.3029 66.9107 42.0309C66.9427 43.7589 66.9747 45.3909 67.0067 46.9269C67.0707 48.4629 67.1347 49.9509 67.1987 51.3909C67.2627 52.8309 67.3267 54.3029 67.3907 55.8069C68.3187 54.5589 69.1827 53.1349 69.9827 51.5349C70.7827 49.9029 71.4707 48.2388 72.0467 46.5429C72.6547 44.8148 73.1187 43.1029 73.4387 41.4069C73.7907 39.7109 73.9667 38.1429 73.9667 36.7029ZM91.3427 58.1589C91.1187 58.6389 90.8787 59.1348 90.6227 59.6469C90.3987 60.1589 90.1107 60.6389 89.7587 61.0869C87.9987 63.5829 85.9987 65.5509 83.7587 66.9909C81.5187 68.3989 79.2947 69.1029 77.0867 69.1029C75.7107 69.1029 74.3987 68.7829 73.1507 68.1429C71.9027 67.5349 70.7987 66.5429 69.8387 65.1669C69.7107 65.0069 69.6467 64.8629 69.6467 64.7349C69.6467 64.4469 69.8387 64.3029 70.2227 64.3029C70.2547 64.3029 70.3667 64.3349 70.5587 64.3989C70.8147 64.3989 71.1027 64.4949 71.4227 64.6869C71.7747 64.8469 72.2707 64.9269 72.9107 64.9269C73.9027 64.9269 74.8307 64.7509 75.6947 64.3989C76.5587 64.0469 77.2947 63.5989 77.9027 63.0549C78.5427 62.4789 79.0387 61.8389 79.3907 61.1349C79.7427 60.3989 79.9187 59.6469 79.9187 58.8789C79.9187 57.9189 79.6627 57.0869 79.1507 56.3829C78.6707 55.6789 77.8387 55.3269 76.6547 55.3269C75.4387 55.3269 74.3187 55.7589 73.2947 56.6229C72.2707 57.4549 71.3427 58.4789 70.5107 59.6949C69.7107 60.8789 69.0227 62.1428 68.4467 63.4869C67.8707 64.7989 67.4387 65.9509 67.1507 66.9429C66.9907 67.4869 66.8467 67.8229 66.7187 67.9509C66.5907 68.0788 66.4467 68.1429 66.2867 68.1429C65.9347 68.1429 65.7747 67.8069 65.8067 67.1349C65.8067 66.8469 65.8227 66.4949 65.8547 66.0789C65.8867 65.6629 65.9187 65.2149 65.9507 64.7349C65.9507 64.2549 65.9667 63.7749 65.9987 63.2949C66.0307 62.7829 66.0467 62.3189 66.0467 61.9029C66.0467 60.4629 66.0147 58.8149 65.9507 56.9589C65.8867 55.0709 65.8067 53.1349 65.7107 51.1509C65.6147 49.1349 65.5347 47.1349 65.4707 45.1509C65.4067 43.1669 65.3747 41.3429 65.3747 39.6789C65.3747 38.3669 65.4707 37.1029 65.6627 35.8869C65.8547 34.6389 66.1587 33.5509 66.5747 32.6229C66.9907 31.6629 67.5187 30.9109 68.1587 30.3669C68.7987 29.7909 69.5507 29.5029 70.4147 29.5029C71.3107 29.5029 72.0627 29.6629 72.6707 29.9829C73.3107 30.2709 73.8227 30.7029 74.2067 31.2789C74.5907 31.8229 74.8627 32.4949 75.0227 33.2949C75.2147 34.0628 75.3107 34.9109 75.3107 35.8389C75.3107 37.4389 75.0867 39.1989 74.6387 41.1189C74.1907 43.0069 73.5987 44.9109 72.8627 46.8309C72.1267 48.7509 71.2787 50.6069 70.3187 52.3989C69.3907 54.1589 68.4307 55.6949 67.4387 57.0069C67.5027 57.9669 67.5347 58.9589 67.5347 59.9829C67.5667 61.0069 67.6147 62.0949 67.6787 63.2469C68.4787 61.5189 69.3587 60.0309 70.3187 58.7829C70.7347 58.2389 71.1987 57.7109 71.7107 57.1989C72.2547 56.6549 72.8147 56.1749 73.3907 55.7589C73.9987 55.3429 74.6387 55.0069 75.3107 54.7509C76.0147 54.4949 76.7507 54.3669 77.5187 54.3669C78.7347 54.3669 79.7907 54.6709 80.6867 55.2789C81.5827 55.8869 82.0307 56.8629 82.0307 58.2069C82.0307 59.4869 81.7107 60.5749 81.0707 61.4709C80.4627 62.3669 79.6947 63.1189 78.7667 63.7269C77.8387 64.3029 76.8467 64.7349 75.7907 65.0229C74.7347 65.3109 73.7747 65.4869 72.9107 65.5509C72.8467 65.5509 72.8147 65.5669 72.8147 65.5989C72.8147 65.6629 72.8627 65.7589 72.9587 65.8869C73.5987 66.6229 74.3187 67.1509 75.1187 67.4709C75.9187 67.7909 76.7507 67.9509 77.6147 67.9509C78.6707 67.9509 79.7427 67.7589 80.8307 67.3749C81.9187 66.9589 82.9587 66.4309 83.9507 65.7909C84.9427 65.1189 85.8547 64.3669 86.6867 63.5349C87.5507 62.6709 88.2547 61.8069 88.7987 60.9429C89.1187 60.4629 89.4067 59.9669 89.6627 59.4549C89.9187 58.9429 90.1747 58.4309 90.4307 57.9189L91.3427 58.1589Z" fill="#FFF9F4"/>
<path d="M98.1096 55.1829C98.1096 54.3189 97.8856 53.6149 97.4376 53.0709C97.0216 52.4949 96.3336 52.2069 95.3736 52.2069C94.8616 52.2069 94.3976 52.3669 93.9816 52.6869C93.5656 53.0069 93.2136 53.4389 92.9256 53.9829C92.6376 54.4949 92.4136 55.1029 92.2536 55.8069C92.0936 56.5109 92.0136 57.2469 92.0136 58.0149C92.0136 59.2309 92.1416 60.3189 92.3976 61.2789C92.6856 62.2069 93.0856 63.0229 93.5976 63.7269C94.2696 63.1829 94.8776 62.5588 95.4216 61.8549C95.9656 61.1509 96.4296 60.4149 96.8136 59.6469C97.2296 58.8788 97.5496 58.1109 97.7736 57.3429C97.9976 56.5749 98.1096 55.8549 98.1096 55.1829ZM110.254 58.1589C110.03 58.6389 109.79 59.1348 109.534 59.6469C109.31 60.1269 109.022 60.6069 108.67 61.0869C107.102 63.3269 105.31 65.0229 103.294 66.1749C101.31 67.2949 99.4056 67.8549 97.5816 67.8549C96.5576 67.8549 95.5976 67.6789 94.7016 67.3269C93.8376 66.9748 93.0856 66.4468 92.4456 65.7429C91.8056 65.0389 91.2936 64.1589 90.9096 63.1029C90.5256 62.0469 90.3336 60.7989 90.3336 59.3589C90.3336 58.3989 90.4776 57.4389 90.7656 56.4789C91.0536 55.5189 91.4376 54.6549 91.9176 53.8869C92.4296 53.1189 93.0056 52.4949 93.6456 52.0149C94.3176 51.5349 95.0216 51.2949 95.7576 51.2949C96.9416 51.2949 97.8056 51.6469 98.3496 52.3509C98.8936 53.0229 99.1656 53.8869 99.1656 54.9429C99.1656 56.3829 98.7176 57.9509 97.8216 59.6469C96.9576 61.3109 95.7096 62.8629 94.0776 64.3029C95.2936 65.6789 96.8616 66.3669 98.7816 66.3669C100.222 66.3669 101.726 65.9349 103.294 65.0709C104.862 64.1749 106.334 62.7989 107.71 60.9429C108.062 60.4949 108.35 60.0149 108.574 59.5029C108.83 58.9589 109.086 58.4309 109.342 57.9189L110.254 58.1589Z" fill="#FFF9F4"/>
<path d="M151.839 46.0629C150.655 46.0629 149.519 46.1909 148.431 46.4469C147.375 46.7029 146.431 47.0069 145.599 47.3589C144.799 47.7109 144.143 48.0789 143.631 48.4629C143.151 48.8469 142.911 49.1829 142.911 49.4709C142.911 49.8549 143.359 50.0469 144.255 50.0469C145.791 50.0469 147.247 49.6789 148.623 48.9429C150.031 48.2069 151.295 47.2469 152.415 46.0629H151.839ZM165.807 53.2629C165.807 54.8309 165.359 56.5269 164.463 58.3509C163.599 60.1749 162.399 61.9829 160.863 63.7749C159.327 65.5669 157.503 67.2949 155.391 68.9589C153.279 70.6229 151.007 72.0949 148.575 73.3749C146.143 74.6549 143.583 75.6629 140.895 76.3989C138.207 77.1669 135.519 77.5509 132.831 77.5509C132.383 77.5509 131.887 77.5349 131.343 77.5029C130.831 77.4709 130.351 77.3909 129.903 77.2629C129.455 77.1669 129.071 76.9909 128.751 76.7349C128.431 76.5109 128.271 76.1909 128.271 75.7749C128.271 75.1989 128.559 74.6389 129.135 74.0949C129.711 73.5829 130.447 73.1029 131.343 72.6549C132.239 72.2069 133.215 71.8069 134.271 71.4549C135.327 71.1029 136.335 70.7989 137.295 70.5429C138.287 70.2869 139.151 70.0789 139.887 69.9189C140.623 69.7909 141.119 69.7269 141.375 69.7269C141.567 69.7269 141.711 69.7749 141.807 69.8709C141.903 69.9669 141.951 70.0629 141.951 70.1589C141.951 70.3189 141.871 70.3989 141.711 70.3989H141.087C140.255 70.3989 139.199 70.5589 137.919 70.8789C136.639 71.1989 135.391 71.5989 134.175 72.0789C132.959 72.5589 131.919 73.0869 131.055 73.6629C130.191 74.2709 129.759 74.8309 129.759 75.3429C129.759 75.6949 129.871 75.9669 130.095 76.1589C130.351 76.3829 130.655 76.5589 131.007 76.6869C131.359 76.8148 131.727 76.8949 132.111 76.9269C132.495 76.9909 132.831 77.0229 133.119 77.0229C135.391 77.0229 137.711 76.6389 140.079 75.8709C142.479 75.1029 144.799 74.0788 147.039 72.7989C149.311 71.5508 151.439 70.0949 153.423 68.4309C155.439 66.7989 157.199 65.1029 158.703 63.3429C160.207 61.5509 161.391 59.7749 162.255 58.0149C163.119 56.2229 163.551 54.5589 163.551 53.0229C163.551 51.1349 162.767 49.5669 161.199 48.3189C159.663 47.0389 157.119 46.3029 153.567 46.1109C152.127 47.4549 150.543 48.5429 148.815 49.3749C147.119 50.2069 145.391 50.6229 143.631 50.6229C142.383 50.6229 141.759 50.3189 141.759 49.7109C141.759 49.3269 142.015 48.8949 142.527 48.4149C143.071 47.9029 143.807 47.4229 144.735 46.9749C145.695 46.5269 146.831 46.1589 148.143 45.8709C149.455 45.5509 150.895 45.3909 152.463 45.3909H153.039C154.095 44.1429 154.943 42.7829 155.583 41.3109C156.223 39.8069 156.543 38.3349 156.543 36.8949C156.543 35.9349 156.367 35.0229 156.015 34.1589C155.695 33.2629 155.151 32.4949 154.383 31.8549C153.647 31.2149 152.671 30.7029 151.455 30.3189C150.271 29.9349 148.831 29.7429 147.135 29.7429C145.983 29.7429 144.383 29.9029 142.335 30.2228C140.319 30.5429 138.127 31.0389 135.759 31.7109C133.423 32.3509 131.039 33.1669 128.607 34.1589C126.175 35.1509 123.967 36.3029 121.983 37.6149C119.999 38.9269 118.383 40.4149 117.135 42.0789C115.887 43.7429 115.263 45.5829 115.263 47.5989C115.263 47.8549 115.215 48.0788 115.119 48.2709C115.023 48.4309 114.927 48.5109 114.831 48.5109C114.703 48.5109 114.607 48.3829 114.543 48.1269C114.447 47.8389 114.399 47.3749 114.399 46.7349C114.687 44.6549 115.535 42.7669 116.943 41.0709C118.351 39.3749 120.095 37.8709 122.175 36.5589C124.223 35.2149 126.479 34.0629 128.943 33.1028C131.407 32.1429 133.839 31.3589 136.239 30.7509C138.671 30.1109 140.927 29.6468 143.007 29.3588C145.119 29.0388 146.847 28.8788 148.191 28.8788C150.143 28.8788 151.791 29.0709 153.135 29.4549C154.511 29.8069 155.631 30.3029 156.495 30.9429C157.359 31.5509 157.983 32.2869 158.367 33.1509C158.751 34.0149 158.943 34.9269 158.943 35.8869C158.943 37.4549 158.511 39.0869 157.647 40.7829C156.815 42.4468 155.679 43.9988 154.239 45.4389C156.287 45.5349 158.047 45.8069 159.519 46.2549C160.991 46.6709 162.191 47.2309 163.119 47.9349C164.047 48.6069 164.719 49.4069 165.135 50.3349C165.583 51.2309 165.807 52.2069 165.807 53.2629ZM140.367 65.8869C140.367 66.3349 140.335 66.6549 140.271 66.8469C140.207 67.0389 140.031 67.1349 139.743 67.1349C139.103 67.1989 138.783 66.5589 138.783 65.2149C138.751 60.7989 138.703 56.7669 138.639 53.1189C138.607 49.4709 138.559 46.3189 138.495 43.6629C138.463 40.9749 138.431 38.8469 138.399 37.2789C138.367 35.7109 138.351 34.8149 138.351 34.5909C138.351 34.3349 138.431 34.1589 138.591 34.0629C138.751 33.9669 138.943 33.8869 139.167 33.8229C139.423 33.8229 139.615 33.9029 139.743 34.0629C139.903 34.2229 139.983 34.4149 139.983 34.6389C139.983 37.1989 139.999 39.8389 140.031 42.5589C140.063 45.2469 140.095 47.9349 140.127 50.6229C140.191 53.3109 140.239 55.9508 140.271 58.5429C140.335 61.1348 140.367 63.5829 140.367 65.8869Z" fill="#FFF9F4"/>
<path d="M184.465 58.2069C184.465 57.7269 184.385 57.3429 184.225 57.0549C184.065 56.7349 183.809 56.5749 183.457 56.5749C182.913 56.5749 182.497 56.8469 182.209 57.3909C181.921 57.9029 181.793 58.5589 181.825 59.3589C181.921 61.0549 182.225 62.4789 182.737 63.6309C183.281 62.8949 183.697 62.0629 183.985 61.1349C184.305 60.2069 184.465 59.2309 184.465 58.2069ZM197.425 58.1589C197.201 58.6389 196.961 59.1348 196.705 59.6469C196.449 60.1269 196.161 60.6069 195.841 61.0869C194.209 63.5189 192.561 65.3269 190.897 66.5109C189.233 67.6949 187.681 68.2869 186.241 68.2869C184.417 68.2869 183.025 67.4229 182.065 65.6949C180.945 66.8148 179.681 67.6629 178.273 68.2389C176.897 68.8149 175.537 69.1029 174.193 69.1029C173.393 69.1029 172.625 68.9909 171.889 68.7669C171.185 68.5429 170.577 68.2069 170.065 67.7589C169.521 67.2789 169.089 66.6869 168.769 65.9829C168.449 65.2469 168.289 64.3989 168.289 63.4389C168.289 62.2869 168.561 61.1189 169.105 59.9349C169.617 58.7189 170.337 57.6309 171.265 56.6709C172.225 55.6789 173.345 54.8629 174.625 54.2229C175.905 53.5829 177.297 53.2629 178.801 53.2629C180.017 53.2629 180.961 53.4389 181.633 53.7909C182.305 54.1109 182.641 54.4149 182.641 54.7029C182.641 54.8309 182.577 54.9269 182.449 54.9909C182.321 55.0549 182.209 55.0869 182.113 55.0869C182.081 55.0549 182.049 55.0389 182.017 55.0389H181.969C181.585 54.6869 181.153 54.4149 180.673 54.2229C180.193 53.9989 179.489 53.8869 178.561 53.8869C177.313 53.8869 176.177 54.1589 175.153 54.7029C174.161 55.2149 173.313 55.9029 172.609 56.7669C171.905 57.5989 171.361 58.5269 170.977 59.5509C170.593 60.5749 170.401 61.5829 170.401 62.5749C170.401 64.4949 170.849 65.8869 171.745 66.7509C172.641 67.6149 173.761 68.0469 175.105 68.0469C176.193 68.0469 177.329 67.7749 178.513 67.2309C179.697 66.6869 180.753 65.9189 181.681 64.9269C181.169 63.7749 180.913 62.2709 180.913 60.4149C180.913 59.1989 181.137 58.1429 181.585 57.2469C182.033 56.3509 182.673 55.9029 183.505 55.9029C184.657 55.9029 185.233 56.5749 185.233 57.9189C185.233 59.2629 185.041 60.4789 184.657 61.5669C184.273 62.6229 183.761 63.5829 183.121 64.4469C184.017 66.1109 185.265 66.9429 186.865 66.9429C188.081 66.9429 189.377 66.4309 190.753 65.4069C192.161 64.3829 193.537 62.8949 194.881 60.9429C195.201 60.4629 195.489 59.9669 195.745 59.4549C196.001 58.9429 196.257 58.4309 196.513 57.9189L197.425 58.1589Z" fill="#FFF9F4"/>
<path d="M204.092 36.7029C204.092 34.8789 203.788 33.4229 203.18 32.3349C202.604 31.2149 201.628 30.6549 200.252 30.6549C199.772 30.6549 199.324 30.8149 198.908 31.1349C198.524 31.4229 198.188 31.8229 197.9 32.3349C197.612 32.8469 197.388 33.4389 197.228 34.1109C197.068 34.7829 196.988 35.5029 196.988 36.2709C196.988 38.3829 197.004 40.3029 197.036 42.0309C197.068 43.7589 197.1 45.3909 197.132 46.9269C197.196 48.4629 197.26 49.9509 197.324 51.3909C197.388 52.8309 197.452 54.3029 197.516 55.8069C198.444 54.5589 199.308 53.1349 200.108 51.5349C200.908 49.9029 201.596 48.2388 202.172 46.5429C202.78 44.8148 203.244 43.1029 203.564 41.4069C203.916 39.7109 204.092 38.1429 204.092 36.7029ZM221.468 58.1589C221.244 58.6389 221.004 59.1348 220.748 59.6469C220.524 60.1589 220.236 60.6389 219.884 61.0869C218.124 63.5829 216.124 65.5509 213.884 66.9909C211.644 68.3989 209.42 69.1029 207.212 69.1029C205.836 69.1029 204.524 68.7829 203.276 68.1429C202.028 67.5349 200.924 66.5429 199.964 65.1669C199.836 65.0069 199.772 64.8629 199.772 64.7349C199.772 64.4469 199.964 64.3029 200.348 64.3029C200.38 64.3029 200.492 64.3349 200.684 64.3989C200.94 64.3989 201.228 64.4949 201.548 64.6869C201.9 64.8469 202.396 64.9269 203.036 64.9269C204.028 64.9269 204.956 64.7509 205.82 64.3989C206.684 64.0469 207.42 63.5989 208.028 63.0549C208.668 62.4789 209.164 61.8389 209.516 61.1349C209.868 60.3989 210.044 59.6469 210.044 58.8789C210.044 57.9189 209.788 57.0869 209.276 56.3829C208.796 55.6789 207.964 55.3269 206.78 55.3269C205.564 55.3269 204.444 55.7589 203.42 56.6229C202.396 57.4549 201.468 58.4789 200.636 59.6949C199.836 60.8789 199.148 62.1428 198.572 63.4869C197.996 64.7989 197.564 65.9509 197.276 66.9429C197.116 67.4869 196.972 67.8229 196.844 67.9509C196.716 68.0788 196.572 68.1429 196.412 68.1429C196.06 68.1429 195.9 67.8069 195.932 67.1349C195.932 66.8469 195.948 66.4949 195.98 66.0789C196.012 65.6629 196.044 65.2149 196.076 64.7349C196.076 64.2549 196.092 63.7749 196.124 63.2949C196.156 62.7829 196.172 62.3189 196.172 61.9029C196.172 60.4629 196.14 58.8149 196.076 56.9589C196.012 55.0709 195.932 53.1349 195.836 51.1509C195.74 49.1349 195.66 47.1349 195.596 45.1509C195.532 43.1669 195.5 41.3429 195.5 39.6789C195.5 38.3669 195.596 37.1029 195.788 35.8869C195.98 34.6389 196.284 33.5509 196.7 32.6229C197.116 31.6629 197.644 30.9109 198.284 30.3669C198.924 29.7909 199.676 29.5029 200.54 29.5029C201.436 29.5029 202.188 29.6629 202.796 29.9829C203.436 30.2709 203.948 30.7029 204.332 31.2789C204.716 31.8229 204.988 32.4949 205.148 33.2949C205.34 34.0628 205.436 34.9109 205.436 35.8389C205.436 37.4389 205.212 39.1989 204.764 41.1189C204.316 43.0069 203.724 44.9109 202.988 46.8309C202.252 48.7509 201.404 50.6069 200.444 52.3989C199.516 54.1589 198.556 55.6949 197.564 57.0069C197.628 57.9669 197.66 58.9589 197.66 59.9829C197.692 61.0069 197.74 62.0949 197.804 63.2469C198.604 61.5189 199.484 60.0309 200.444 58.7829C200.86 58.2389 201.324 57.7109 201.836 57.1989C202.38 56.6549 202.94 56.1749 203.516 55.7589C204.124 55.3429 204.764 55.0069 205.436 54.7509C206.14 54.4949 206.876 54.3669 207.644 54.3669C208.86 54.3669 209.916 54.6709 210.812 55.2789C211.708 55.8869 212.156 56.8629 212.156 58.2069C212.156 59.4869 211.836 60.5749 211.196 61.4709C210.588 62.3669 209.82 63.1189 208.892 63.7269C207.964 64.3029 206.972 64.7349 205.916 65.0229C204.86 65.3109 203.9 65.4869 203.036 65.5509C202.972 65.5509 202.94 65.5669 202.94 65.5989C202.94 65.6629 202.988 65.7589 203.084 65.8869C203.724 66.6229 204.444 67.1509 205.244 67.4709C206.044 67.7909 206.876 67.9509 207.74 67.9509C208.796 67.9509 209.868 67.7589 210.956 67.3749C212.044 66.9589 213.084 66.4309 214.076 65.7909C215.068 65.1189 215.98 64.3669 216.812 63.5349C217.676 62.6709 218.38 61.8069 218.924 60.9429C219.244 60.4629 219.532 59.9669 219.788 59.4549C220.044 58.9429 220.3 58.4309 220.556 57.9189L221.468 58.1589Z" fill="#FFF9F4"/>
<path d="M228.235 55.1829C228.235 54.3189 228.011 53.6149 227.563 53.0709C227.147 52.4949 226.459 52.2069 225.499 52.2069C224.987 52.2069 224.523 52.3669 224.107 52.6869C223.691 53.0069 223.339 53.4389 223.051 53.9829C222.763 54.4949 222.539 55.1029 222.379 55.8069C222.219 56.5109 222.139 57.2469 222.139 58.0149C222.139 59.2309 222.267 60.3189 222.523 61.2789C222.811 62.2069 223.211 63.0229 223.723 63.7269C224.395 63.1829 225.003 62.5588 225.547 61.8549C226.091 61.1509 226.555 60.4149 226.939 59.6469C227.355 58.8788 227.675 58.1109 227.899 57.3429C228.123 56.5749 228.235 55.8549 228.235 55.1829ZM240.379 58.1589C240.155 58.6389 239.915 59.1348 239.659 59.6469C239.435 60.1269 239.147 60.6069 238.795 61.0869C237.227 63.3269 235.435 65.0229 233.419 66.1749C231.435 67.2949 229.531 67.8549 227.707 67.8549C226.683 67.8549 225.723 67.6789 224.827 67.3269C223.963 66.9748 223.211 66.4468 222.571 65.7429C221.931 65.0389 221.419 64.1589 221.035 63.1029C220.651 62.0469 220.459 60.7989 220.459 59.3589C220.459 58.3989 220.603 57.4389 220.891 56.4789C221.179 55.5189 221.563 54.6549 222.043 53.8869C222.555 53.1189 223.131 52.4949 223.771 52.0149C224.443 51.5349 225.147 51.2949 225.883 51.2949C227.067 51.2949 227.931 51.6469 228.475 52.3509C229.019 53.0229 229.291 53.8869 229.291 54.9429C229.291 56.3829 228.843 57.9509 227.947 59.6469C227.083 61.3109 225.835 62.8629 224.203 64.3029C225.419 65.6789 226.987 66.3669 228.907 66.3669C230.347 66.3669 231.851 65.9349 233.419 65.0709C234.987 64.1749 236.459 62.7989 237.835 60.9429C238.187 60.4949 238.475 60.0149 238.699 59.5029C238.955 58.9589 239.211 58.4309 239.467 57.9189L240.379 58.1589Z" fill="#FFF9F4"/>
</svg>
